<?xml version="1.0" standalone="no"?>
<!DOCTYPE svg PUBLIC "-//W3C//DTD SVG 20010904//EN"
 "http://www.w3.org/TR/2001/REC-SVG-20010904/DTD/svg10.dtd">
<svg version="1.0" xmlns="http://www.w3.org/2000/svg"
 width="976.000000pt" height="976.000000pt" viewBox="0 0 976.000000 976.000000"
 preserveAspectRatio="xMidYMid meet">
<metadata>
Created by potrace 1.11, written by Peter Selinger 2001-2013
</metadata>
<g transform="translate(0.000000,976.000000) scale(0.100000,-0.100000)"
fill="#000000" stroke="none">
<path d="M1366 9554 c-346 -54 -568 -215 -681 -497 -42 -104 -88 -309 -81
-356 4 -27 3 -31 -4 -16 -5 11 -9 44 -9 73 -1 60 4 58 -107 36 -125 -25 -254
-93 -339 -178 -76 -78 -104 -129 -129 -241 -21 -90 -20 -110 5 -203 23 -88 49
-137 108 -204 37 -41 124 -108 141 -108 4 0 3 20 -3 44 -21 92 35 187 140 239
49 25 180 63 188 56 2 -3 16 -119 30 -259 21 -197 28 -329 32 -582 l6 -327
-51 -98 c-94 -184 -127 -340 -126 -588 1 -163 17 -270 59 -395 17 -50 25 -95
25 -141 0 -93 33 -277 69 -382 141 -415 458 -781 946 -1092 66 -42 235 -134
376 -204 274 -137 403 -211 596 -343 1011 -691 1541 -1692 1510 -2846 -5 -209
-24 -382 -57 -547 -10 -49 -17 -91 -15 -93 1 -2 49 74 105 168 358 599 616
1293 707 1898 4 29 12 54 17 55 16 3 141 -227 196 -360 61 -148 112 -340 136
-509 23 -168 15 -512 -15 -674 -43 -226 -121 -482 -188 -614 -63 -125 64 55
204 289 406 677 648 1399 681 2032 4 76 11 127 17 126 6 -1 210 -79 455 -173
535 -206 1333 -507 1740 -655 80 -29 314 -115 520 -190 206 -75 539 -195 740
-266 201 -71 382 -136 403 -144 21 -7 37 -10 35 -5 -11 32 -1604 1843 -2016
2292 -14 15 -24 30 -21 32 2 3 76 1 164 -4 213 -12 846 -32 851 -27 3 2 -82
64 -188 137 -1518 1052 -2925 2186 -4338 3499 -228 212 -364 319 -554 436 -44
27 -96 68 -117 90 -130 141 -255 322 -346 500 -76 149 -106 223 -200 500 -126
372 -207 511 -354 611 -88 60 -150 85 -309 125 -329 84 -725 119 -954 83z m64
-721 c0 -62 -18 -107 -56 -146 -70 -70 -187 -72 -253 -5 -28 28 -57 95 -46
106 3 3 325 79 348 81 4 1 7 -16 7 -36z m-350 -543 c8 -5 11 -10 5 -10 -5 0
-17 5 -25 10 -8 5 -10 10 -5 10 6 0 17 -5 25 -10z m23 -47 c-45 -2 -122 -2
-170 0 -48 1 -11 3 82 3 94 0 133 -2 88 -3z m-310 -10 c-13 -2 -33 -2 -45 0
-13 2 -3 4 22 4 25 0 35 -2 23 -4z m-90 -10 c-7 -2 -21 -2 -30 0 -10 3 -4 5
12 5 17 0 24 -2 18 -5z m-60 -10 c-7 -2 -19 -2 -25 0 -7 3 -2 5 12 5 14 0 19
-2 13 -5z"/>
</g>
</svg>
